<?xml version="1.0"?>
<svg version="1.1" xmlns="http://www.w3.org/2000/svg" width="180" height="50" style=""><path fill="#ffffff" d="M15.175,24.475l0-2.975l10.85-0.175l0,3.15l-2.59,1.015l3.22,10.045l1.12,4.305l1.12-4.13l3.465-10.185l-2.66-1.05l0-2.975l10.465-0.175l0,3.15l-2.555,1.05l-7.385,20.475l-5.6,0l-7.07-20.545z M55.93285,46l-0.63-2.275s-2.695,2.625-5.67,2.625c-3.395,0-5.46-1.995-5.46-5.495c0-4.13,3.115-5.775,8.435-5.775l2.45,0l0-1.925c0-1.785-0.945-2.555-2.695-2.555c-1.785,0-3.08,0.525-3.08,0.525l-0.525,2.205l-3.15,0l-0.245-5.18s4.235-1.4,7.595-1.4c5.32,0,7.35,1.855,7.35,6.93l0,8.645l2.625,0.63l0,2.8z M55.05785,38.055l-1.995,0c-2.73,0-3.815,0.7-3.815,2.275c0,1.33,0.735,2.1,2.065,2.1c1.855,0,3.745-2.03,3.745-2.03l0-2.345z M70.7207,39.875l0.28,2.275s1.225,0.35,2.94,0.35c1.925,0,2.87-0.595,2.87-1.715c0-2.87-9.345-1.82-9.345-8.05c0-4.375,3.5-5.985,7.21-5.985c3.15,0,6.51,1.05,6.51,1.05l-0.14,5.25l-2.975,0l-0.525-2.1s-1.015-0.35-2.415-0.35c-1.505,0-2.415,0.63-2.415,1.785c0,2.835,9.345,1.61,9.345,7.665c0,4.025-3.255,6.3-8.05,6.3c-3.325,0-6.44-0.77-6.44-0.77l0-5.705l3.15,0z M89.11355,21.325c0-1.995,1.435-3.15,3.01-3.15c1.82,0,2.94,0.945,2.94,3.15c0,2.065-1.505,3.185-2.94,3.185c-1.89,0-3.01-1.12-3.01-3.185z M94.99355,42.325l2.45,0.875l0,2.8l-10.5,0l0-2.8l2.8-0.875l0-11.375l-2.8-0.875l0-2.8l8.05-0.175l0,15.225z M105.4764,27.45l0-1.575c0-4.445,2.555-7.42,7.525-7.42c3.78,0,6.195,1.295,6.195,1.295l-0.105,5.145l-3.15,0l-0.525-2.45s-0.84-0.14-1.995-0.14c-1.925,0-2.695,1.155-2.695,2.975l0,2.17l4.55,0l-0.105,3.5l-4.445,0l0,11.375l3.5,0.875l0,2.8l-11.55,0l0-2.8l2.8-0.875l0-11.375l-3.15,0l0-2.975z M121.80425,43.27c0-1.995,1.435-3.15,3.01-3.15c1.925,0,2.94,1.155,2.94,3.15c0,2.03-1.435,3.185-3.01,3.185c-1.925,0-2.94-1.155-2.94-3.185z"/><path fill="#ffffff" d=""/></svg>
